{
    "asset" : {
        "generator" : "Khronos glTF Blender I/O v3.4.49",
        "version" : "2.0"
    },
    "scene" : 0,
    "scenes" : [
        {
            "name" : "Scene",
            "nodes" : [
                0,
                1,
                2,
                3,
                4,
                5,
                7
            ]
        }
    ],
    "nodes" : [
        {
            "mesh" : 0,
            "name" : "scificar_armatureclosed",
            "rotation" : [
                0,
                0,
                1,
                1.6292068494294654e-07
            ],
            "translation" : [
                -0.27348506450653076,
                0.2668667435646057,
                0.2307395040988922
            ]
        },
        {
            "mesh" : 1,
            "name" : "scificar_body.001",
            "rotation" : [
                0,
                0,
                1,
                1.6292068494294654e-07
            ],
            "translation" : [
                -0.27348506450653076,
                0.2668667435646057,
                0.2307395040988922
            ]
        },
        {
            "mesh" : 2,
            "name" : "scificar_bodydoor.001",
            "rotation" : [
                0,
                0,
                1,
                1.6292068494294654e-07
            ],
            "translation" : [
                0.09942318499088287,
                1.2473504543304443,
                1.743651032447815
            ]
        },
        {
            "mesh" : 3,
            "name" : "scificar_bodydoorstair.001",
            "rotation" : [
                0,
                0,
                1,
                1.6292068494294654e-07
            ],
            "translation" : [
                0.09942318499088287,
                1.2473504543304443,
                1.743651032447815
            ]
        },
        {
            "mesh" : 4,
            "name" : "scificar_dump.001",
            "rotation" : [
                0,
                0,
                1,
                1.6292068494294654e-07
            ],
            "translation" : [
                -0.3244163393974304,
                2.220792055130005,
                -1.5705690383911133
            ]
        },
        {
            "mesh" : 5,
            "name" : "scificar_dumpdoor.001",
            "rotation" : [
                0,
                0,
                1,
                1.6292068494294654e-07
            ],
            "translation" : [
                -0.34161239862442017,
                2.4121720790863037,
                -3.0670008659362793
            ]
        },
        {
            "mesh" : 6,
            "name" : "scificarwheel1-colonly.001",
            "rotation" : [
                -0.0010712004732340574,
                0,
                0.999999463558197,
                4.447784078820405e-07
            ],
            "translation" : [
                3.367287263245089e-06,
                0,
                0
            ]
        },
        {
            "children" : [
                6
            ],
            "mesh" : 7,
            "name" : "scificar_wheel1.001",
            "rotation" : [
                0,
                0,
                1,
                1.6292068494294654e-07
            ],
            "translation" : [
                0.9693450927734375,
                1.1878635883331299,
                3.1457509994506836
            ]
        }
    ],
    "materials" : [
        {
            "doubleSided" : true,
            "emissiveFactor" : [
                1,
                1,
                1
            ],
            "emissiveTexture" : {
                "index" : 0
            },
            "name" : "scifi_car",
            "normalTexture" : {
                "index" : 1
            },
            "pbrMetallicRoughness" : {
                "baseColorTexture" : {
                    "index" : 2
                },
                "metallicFactor" : 0,
                "metallicRoughnessTexture" : {
                    "index" : 3
                }
            }
        },
        {
            "doubleSided" : true,
            "name" : "scifi_car_glass",
            "pbrMetallicRoughness" : {
                "baseColorFactor" : [
                    0.24285385012626648,
                    0.24285385012626648,
                    0.24285385012626648,
                    1
                ],
                "metallicFactor" : 0,
                "roughnessFactor" : 0.5
            }
        }
    ],
    "meshes" : [
        {
            "name" : "Cube.028",
            "primitives" : [
                {
                    "attributes" : {
                        "POSITION" : 0,
                        "TEXCOORD_0" : 1,
                        "NORMAL" : 2
                    },
                    "indices" : 3,
                    "material" : 0
                }
            ]
        },
        {
            "name" : "Cube.012",
            "primitives" : [
                {
                    "attributes" : {
                        "POSITION" : 4,
                        "TEXCOORD_0" : 5,
                        "NORMAL" : 6
                    },
                    "indices" : 7,
                    "material" : 0
                },
                {
                    "attributes" : {
                        "POSITION" : 8,
                        "TEXCOORD_0" : 9,
                        "NORMAL" : 10
                    },
                    "indices" : 11,
                    "material" : 1
                }
            ]
        },
        {
            "name" : "Cube.015",
            "primitives" : [
                {
                    "attributes" : {
                        "POSITION" : 12,
                        "TEXCOORD_0" : 13,
                        "NORMAL" : 14
                    },
                    "indices" : 15,
                    "material" : 0
                }
            ]
        },
        {
            "name" : "Cube.032",
            "primitives" : [
                {
                    "attributes" : {
                        "POSITION" : 16,
                        "TEXCOORD_0" : 17,
                        "NORMAL" : 18
                    },
                    "indices" : 19,
                    "material" : 0
                }
            ]
        },
        {
            "name" : "Cube.008",
            "primitives" : [
                {
                    "attributes" : {
                        "POSITION" : 20,
                        "TEXCOORD_0" : 21,
                        "NORMAL" : 22
                    },
                    "indices" : 23,
                    "material" : 0
                }
            ]
        },
        {
            "name" : "Cube.035",
            "primitives" : [
                {
                    "attributes" : {
                        "POSITION" : 24,
                        "TEXCOORD_0" : 25,
                        "NORMAL" : 26
                    },
                    "indices" : 27,
                    "material" : 0
                }
            ]
        },
        {
            "name" : "Circle.044",
            "primitives" : [
                {
                    "attributes" : {
                        "POSITION" : 28,
                        "NORMAL" : 29
                    },
                    "indices" : 30
                }
            ]
        },
        {
            "name" : "Cube.021",
            "primitives" : [
                {
                    "attributes" : {
                        "COLOR_0" : 31,
                        "POSITION" : 32,
                        "TEXCOORD_0" : 33,
                        "NORMAL" : 34
                    },
                    "indices" : 35,
                    "material" : 0
                }
            ]
        }
    ],
    "textures" : [
        {
            "sampler" : 0,
            "source" : 0
        },
        {
            "sampler" : 0,
            "source" : 1
        },
        {
            "sampler" : 0,
            "source" : 2
        },
        {
            "sampler" : 0,
            "source" : 3
        }
    ],
    "images" : [
        {
            "mimeType" : "image/png",
            "name" : "scificar_emissive",
            "uri" : "scificar_emissive.png"
        },
        {
            "mimeType" : "image/png",
            "name" : "scificar_normal",
            "uri" : "scificar_normal.png"
        },
        {
            "mimeType" : "image/png",
            "name" : "scificar_albedo",
            "uri" : "scificar_albedo.png"
        },
        {
            "mimeType" : "image/png",
            "name" : "scificar_orm",
            "uri" : "scificar_orm.png"
        }
    ],
    "accessors" : [
        {
            "bufferView" : 0,
            "componentType" : 5126,
            "count" : 20315,
            "max" : [
                1.884770154953003,
                -0.468852162361145,
                3.8478896617889404
            ],
            "min" : [
                -1.780124545097351,
                -4.638289928436279,
                0.4095284938812256
            ],
            "type" : "VEC3"
        },
        {
            "bufferView" : 1,
            "componentType" : 5126,
            "count" : 20315,
            "type" : "VEC2"
        },
        {
            "bufferView" : 2,
            "componentType" : 5126,
            "count" : 20315,
            "type" : "VEC3"
        },
        {
            "bufferView" : 3,
            "componentType" : 5123,
            "count" : 21744,
            "type" : "SCALAR"
        },
        {
            "bufferView" : 4,
            "componentType" : 5126,
            "count" : 55402,
            "max" : [
                1.7318906784057617,
                -0.4313845634460449,
                4.059497833251953
            ],
            "min" : [
                -1.731888771057129,
                -3.1889147758483887,
                -2.9447286128997803
            ],
            "type" : "VEC3"
        },
        {
            "bufferView" : 5,
            "componentType" : 5126,
            "count" : 55402,
            "type" : "VEC2"
        },
        {
            "bufferView" : 6,
            "componentType" : 5126,
            "count" : 55402,
            "type" : "VEC3"
        },
        {
            "bufferView" : 7,
            "componentType" : 5123,
            "count" : 59760,
            "type" : "SCALAR"
        },
        {
            "bufferView" : 8,
            "componentType" : 5126,
            "count" : 2124,
            "max" : [
                0.624751091003418,
                -2.1117658615112305,
                4.040802001953125
            ],
            "min" : [
                -0.6247491836547852,
                -3.04811429977417,
                2.2175040245056152
            ],
            "type" : "VEC3"
        },
        {
            "bufferView" : 9,
            "componentType" : 5126,
            "count" : 2124,
            "type" : "VEC2"
        },
        {
            "bufferView" : 10,
            "componentType" : 5126,
            "count" : 2124,
            "type" : "VEC3"
        },
        {
            "bufferView" : 11,
            "componentType" : 5123,
            "count" : 2124,
            "type" : "SCALAR"
        },
        {
            "bufferView" : 12,
            "componentType" : 5126,
            "count" : 454,
            "max" : [
                0.039665281772613525,
                0.02984905242919922,
                0.3394876718521118
            ],
            "min" : [
                -0.975338876247406,
                -0.7975215911865234,
                -0.33948755264282227
            ],
            "type" : "VEC3"
        },
        {
            "bufferView" : 13,
            "componentType" : 5126,
            "count" : 454,
            "type" : "VEC2"
        },
        {
            "bufferView" : 14,
            "componentType" : 5126,
            "count" : 454,
            "type" : "VEC3"
        },
        {
            "bufferView" : 15,
            "componentType" : 5123,
            "count" : 456,
            "type" : "SCALAR"
        },
        {
            "bufferView" : 16,
            "componentType" : 5126,
            "count" : 390,
            "max" : [
                0.014033377170562744,
                -0.012835979461669922,
                0.3087944984436035
            ],
            "min" : [
                -0.9619411826133728,
                -0.8008089065551758,
                -0.3087940216064453
            ],
            "type" : "VEC3"
        },
        {
            "bufferView" : 17,
            "componentType" : 5126,
            "count" : 390,
            "type" : "VEC2"
        },
        {
            "bufferView" : 18,
            "componentType" : 5126,
            "count" : 390,
            "type" : "VEC3"
        },
        {
            "bufferView" : 19,
            "componentType" : 5123,
            "count" : 462,
            "type" : "SCALAR"
        },
        {
            "bufferView" : 20,
            "componentType" : 5126,
            "count" : 10837,
            "max" : [
                1.8025022745132446,
                0.2037954330444336,
                2.209742546081543
            ],
            "min" : [
                -1.7420529127120972,
                -1.2246437072753906,
                -1.7709661722183228
            ],
            "type" : "VEC3"
        },
        {
            "bufferView" : 21,
            "componentType" : 5126,
            "count" : 10837,
            "type" : "VEC2"
        },
        {
            "bufferView" : 22,
            "componentType" : 5126,
            "count" : 10837,
            "type" : "VEC3"
        },
        {
            "bufferView" : 23,
            "componentType" : 5123,
            "count" : 11202,
            "type" : "SCALAR"
        },
        {
            "bufferView" : 24,
            "componentType" : 5126,
            "count" : 1043,
            "max" : [
                1.6136846542358398,
                0.05843305587768555,
                0.06895232200622559
            ],
            "min" : [
                -1.5532360076904297,
                -0.5833735466003418,
                -0.23756623268127441
            ],
            "type" : "VEC3"
        },
        {
            "bufferView" : 25,
            "componentType" : 5126,
            "count" : 1043,
            "type" : "VEC2"
        },
        {
            "bufferView" : 26,
            "componentType" : 5126,
            "count" : 1043,
            "type" : "VEC3"
        },
        {
            "bufferView" : 27,
            "componentType" : 5123,
            "count" : 1068,
            "type" : "SCALAR"
        },
        {
            "bufferView" : 28,
            "componentType" : 5126,
            "count" : 159,
            "max" : [
                0.8576929569244385,
                0.8941012620925903,
                0.8941011428833008
            ],
            "min" : [
                0.09764368087053299,
                -0.8941011428833008,
                -0.8941011428833008
            ],
            "type" : "VEC3"
        },
        {
            "bufferView" : 29,
            "componentType" : 5126,
            "count" : 159,
            "type" : "VEC3"
        },
        {
            "bufferView" : 30,
            "componentType" : 5123,
            "count" : 192,
            "type" : "SCALAR"
        },
        {
            "bufferView" : 31,
            "componentType" : 5123,
            "count" : 12769,
            "normalized" : true,
            "type" : "VEC4"
        },
        {
            "bufferView" : 32,
            "componentType" : 5126,
            "count" : 12769,
            "max" : [
                -0.037732481956481934,
                0.899167537689209,
                0.8960866928100586
            ],
            "min" : [
                -0.8930631875991821,
                -0.8991682529449463,
                -0.8961024284362793
            ],
            "type" : "VEC3"
        },
        {
            "bufferView" : 33,
            "componentType" : 5126,
            "count" : 12769,
            "type" : "VEC2"
        },
        {
            "bufferView" : 34,
            "componentType" : 5126,
            "count" : 12769,
            "type" : "VEC3"
        },
        {
            "bufferView" : 35,
            "componentType" : 5123,
            "count" : 13002,
            "type" : "SCALAR"
        }
    ],
    "bufferViews" : [
        {
            "buffer" : 0,
            "byteLength" : 243780,
            "byteOffset" : 0,
            "target" : 34962
        },
        {
            "buffer" : 0,
            "byteLength" : 162520,
            "byteOffset" : 243780,
            "target" : 34962
        },
        {
            "buffer" : 0,
            "byteLength" : 243780,
            "byteOffset" : 406300,
            "target" : 34962
        },
        {
            "buffer" : 0,
            "byteLength" : 43488,
            "byteOffset" : 650080,
            "target" : 34963
        },
        {
            "buffer" : 0,
            "byteLength" : 664824,
            "byteOffset" : 693568,
            "target" : 34962
        },
        {
            "buffer" : 0,
            "byteLength" : 443216,
            "byteOffset" : 1358392,
            "target" : 34962
        },
        {
            "buffer" : 0,
            "byteLength" : 664824,
            "byteOffset" : 1801608,
            "target" : 34962
        },
        {
            "buffer" : 0,
            "byteLength" : 119520,
            "byteOffset" : 2466432,
            "target" : 34963
        },
        {
            "buffer" : 0,
            "byteLength" : 25488,
            "byteOffset" : 2585952,
            "target" : 34962
        },
        {
            "buffer" : 0,
            "byteLength" : 16992,
            "byteOffset" : 2611440,
            "target" : 34962
        },
        {
            "buffer" : 0,
            "byteLength" : 25488,
            "byteOffset" : 2628432,
            "target" : 34962
        },
        {
            "buffer" : 0,
            "byteLength" : 4248,
            "byteOffset" : 2653920,
            "target" : 34963
        },
        {
            "buffer" : 0,
            "byteLength" : 5448,
            "byteOffset" : 2658168,
            "target" : 34962
        },
        {
            "buffer" : 0,
            "byteLength" : 3632,
            "byteOffset" : 2663616,
            "target" : 34962
        },
        {
            "buffer" : 0,
            "byteLength" : 5448,
            "byteOffset" : 2667248,
            "target" : 34962
        },
        {
            "buffer" : 0,
            "byteLength" : 912,
            "byteOffset" : 2672696,
            "target" : 34963
        },
        {
            "buffer" : 0,
            "byteLength" : 4680,
            "byteOffset" : 2673608,
            "target" : 34962
        },
        {
            "buffer" : 0,
            "byteLength" : 3120,
            "byteOffset" : 2678288,
            "target" : 34962
        },
        {
            "buffer" : 0,
            "byteLength" : 4680,
            "byteOffset" : 2681408,
            "target" : 34962
        },
        {
            "buffer" : 0,
            "byteLength" : 924,
            "byteOffset" : 2686088,
            "target" : 34963
        },
        {
            "buffer" : 0,
            "byteLength" : 130044,
            "byteOffset" : 2687012,
            "target" : 34962
        },
        {
            "buffer" : 0,
            "byteLength" : 86696,
            "byteOffset" : 2817056,
            "target" : 34962
        },
        {
            "buffer" : 0,
            "byteLength" : 130044,
            "byteOffset" : 2903752,
            "target" : 34962
        },
        {
            "buffer" : 0,
            "byteLength" : 22404,
            "byteOffset" : 3033796,
            "target" : 34963
        },
        {
            "buffer" : 0,
            "byteLength" : 12516,
            "byteOffset" : 3056200,
            "target" : 34962
        },
        {
            "buffer" : 0,
            "byteLength" : 8344,
            "byteOffset" : 3068716,
            "target" : 34962
        },
        {
            "buffer" : 0,
            "byteLength" : 12516,
            "byteOffset" : 3077060,
            "target" : 34962
        },
        {
            "buffer" : 0,
            "byteLength" : 2136,
            "byteOffset" : 3089576,
            "target" : 34963
        },
        {
            "buffer" : 0,
            "byteLength" : 1908,
            "byteOffset" : 3091712,
            "target" : 34962
        },
        {
            "buffer" : 0,
            "byteLength" : 1908,
            "byteOffset" : 3093620,
            "target" : 34962
        },
        {
            "buffer" : 0,
            "byteLength" : 384,
            "byteOffset" : 3095528,
            "target" : 34963
        },
        {
            "buffer" : 0,
            "byteLength" : 102152,
            "byteOffset" : 3095912,
            "target" : 34962
        },
        {
            "buffer" : 0,
            "byteLength" : 153228,
            "byteOffset" : 3198064,
            "target" : 34962
        },
        {
            "buffer" : 0,
            "byteLength" : 102152,
            "byteOffset" : 3351292,
            "target" : 34962
        },
        {
            "buffer" : 0,
            "byteLength" : 153228,
            "byteOffset" : 3453444,
            "target" : 34962
        },
        {
            "buffer" : 0,
            "byteLength" : 26004,
            "byteOffset" : 3606672,
            "target" : 34963
        }
    ],
    "samplers" : [
        {
            "magFilter" : 9729,
            "minFilter" : 9987
        }
    ],
    "buffers" : [
        {
            "byteLength" : 3632676,
            "uri" : "VehicleExportable.bin"
        }
    ]
}
